<svg xmlns="http://www.w3.org/2000/svg" viewBox="0 0 1200 630" role="img" aria-labelledby="title desc">
  <title id="title">CILM social preview</title>
  <desc id="desc">CILM risk-scoring methodology for counterfeit-resilient component procurement.</desc>
  <defs>
    <linearGradient id="bg" x1="0" y1="0" x2="1200" y2="630" gradientUnits="userSpaceOnUse">
      <stop offset="0" stop-color="#F8FBFF"/>
      <stop offset="1" stop-color="#EEF5FF"/>
    </linearGradient>
  </defs>
  <rect width="1200" height="630" fill="url(#bg)"/>
  <g opacity="0.06" transform="translate(740 90) scale(5.5)">
    <path d="M32 5.5 54 14.2v15.4c0 13.5-9.1 24.3-22 29-12.9-4.7-22-15.5-22-29V14.2L32 5.5Z" fill="none" stroke="#0B2A4A" stroke-width="4" stroke-linejoin="round"/>
    <path d="M32 52V19" fill="none" stroke="#0B2A4A" stroke-width="3.4" stroke-linecap="round"/>
    <circle cx="32" cy="17" r="5.2" fill="#F8FBFF" stroke="#0B2A4A" stroke-width="3"/>
    <path d="M21 50V35.5l-7.2-6.2" fill="none" stroke="#0B2A4A" stroke-width="3.4" stroke-linecap="round" stroke-linejoin="round"/>
    <circle cx="13" cy="28.5" r="4.4" fill="#F8FBFF" stroke="#0B2A4A" stroke-width="3"/>
    <path d="M43 50V35.5l7.2-6.2" fill="none" stroke="#0B2A4A" stroke-width="3.4" stroke-linecap="round" stroke-linejoin="round"/>
    <circle cx="51" cy="28.5" r="4.4" fill="#F8FBFF" stroke="#0B2A4A" stroke-width="3"/>
  </g>
  <g transform="translate(86 78)">
    <g transform="scale(1.15)">
      <path d="M32 5.5 54 14.2v15.4c0 13.5-9.1 24.3-22 29-12.9-4.7-22-15.5-22-29V14.2L32 5.5Z" fill="none" stroke="#0B2A4A" stroke-width="4" stroke-linejoin="round"/>
      <path d="M32 52V19" fill="none" stroke="#0B2A4A" stroke-width="3.4" stroke-linecap="round"/>
      <circle cx="32" cy="17" r="5.2" fill="#F8FBFF" stroke="#0B2A4A" stroke-width="3"/>
      <path d="M21 50V35.5l-7.2-6.2" fill="none" stroke="#0B2A4A" stroke-width="3.4" stroke-linecap="round" stroke-linejoin="round"/>
      <circle cx="13" cy="28.5" r="4.4" fill="#F8FBFF" stroke="#0B2A4A" stroke-width="3"/>
      <path d="M43 50V35.5l7.2-6.2" fill="none" stroke="#0B2A4A" stroke-width="3.4" stroke-linecap="round" stroke-linejoin="round"/>
      <circle cx="51" cy="28.5" r="4.4" fill="#F8FBFF" stroke="#0B2A4A" stroke-width="3"/>
    </g>
    <text x="92" y="42" font-family="Inter, Arial, sans-serif" font-size="48" font-weight="800" fill="#0B2A4A">CILM</text>
    <text x="92" y="78" font-family="Inter, Arial, sans-serif" font-size="22" font-weight="600" fill="#0B2A4A">Component Integrity &amp; Lifecycle Management</text>
  </g>
  <text x="86" y="240" font-family="Inter, Arial, sans-serif" font-size="24" font-weight="800" letter-spacing="5" fill="#1E3A8A">ELECTRONIC COMPONENT SUPPLY CHAIN</text>
  <text x="86" y="322" font-family="Inter, Arial, sans-serif" font-size="68" font-weight="800" fill="#111827">Risk-scoring methodology</text>
  <text x="86" y="402" font-family="Inter, Arial, sans-serif" font-size="68" font-weight="800" fill="#111827">for <tspan fill="#1E3A8A">counterfeit-resilient</tspan></text>
  <text x="86" y="482" font-family="Inter, Arial, sans-serif" font-size="68" font-weight="800" fill="#111827">component procurement</text>
  <text x="88" y="555" font-family="Inter, Arial, sans-serif" font-size="25" fill="#3B4654">IEEE DataPort dataset · Zenodo DOI · CIRS [0,1] · Author preprint v1.9.2</text>
</svg>
