<svg xmlns="http://www.w3.org/2000/svg" viewBox="0 0 640 320" role="img" aria-labelledby="title desc">
  <title id="title">CILM primary logo</title>
  <desc id="desc">Primary CILM logo with shield chip mark and wordmark.</desc>
  <rect width="640" height="320" rx="28" fill="#F8FBFF"/>
  <g transform="translate(48 58) scale(2.25)">
    <path d="M40 0 74 13.4v23.8c0 20.8-14.1 37.5-34 44.8C20.1 74.7 6 58 6 37.2V13.4L40 0Z" fill="none" stroke="#0B2A4A" stroke-width="5" stroke-linejoin="round"/>
    <path d="M40 70V22" fill="none" stroke="#0B2A4A" stroke-width="4" stroke-linecap="round"/>
    <circle cx="40" cy="19" r="6" fill="#F8FBFF" stroke="#0B2A4A" stroke-width="4"/>
    <path d="M27 68V47.5l-10-8.6" fill="none" stroke="#0B2A4A" stroke-width="4" stroke-linecap="round" stroke-linejoin="round"/>
    <circle cx="15.6" cy="37.8" r="5.2" fill="#F8FBFF" stroke="#0B2A4A" stroke-width="4"/>
    <path d="M53 68V47.5l10-8.6" fill="none" stroke="#0B2A4A" stroke-width="4" stroke-linecap="round" stroke-linejoin="round"/>
    <circle cx="64.4" cy="37.8" r="5.2" fill="#F8FBFF" stroke="#0B2A4A" stroke-width="4"/>
  </g>
  <text x="250" y="142" font-family="Inter, Sora, Arial, sans-serif" font-size="76" font-weight="800" letter-spacing="2" fill="#0B2A4A">CILM</text>
  <text x="255" y="188" font-family="Inter, Arial, sans-serif" font-size="24" font-weight="600" fill="#0B2A4A">Component Integrity &amp; Lifecycle Management</text>
  <line x1="255" y1="210" x2="545" y2="210" stroke="#A6AFB8" stroke-width="2"/>
  <circle cx="400" cy="210" r="5" fill="#F8FBFF" stroke="#A6AFB8" stroke-width="3"/>
  <text x="255" y="244" font-family="Inter, Arial, sans-serif" font-size="17" fill="#5F6B7A">Digital integrity &amp; risk intelligence for electronics supply chains</text>
</svg>
